:FULLY-SPECIFIED
:FORCE-ALL-JOINTS-BE-3DOF
:DEGREES
918
root -0.205654 14.1347 -36.2926 12.8992 -27.2575 -15.9819
lfemur -63.6775 30.6173 -0.17747
ltibia 68.3211 0 0
lfoot -6.70999 -8.54914 -0.0545289
ltoes -13.1836 0 0
rfemur 5.56848 -8.16329 13.3227
rtibia 37.9193 0 0
rfoot -22.5281 -28.8122 -0.00100839
rtoes -27.3377 0 0
lowerback 11.5191 0.155422 6.46667
upperback -1.82427 1.52117 5.04841
thorax -8.43183 0.544323 1.47407
lowerneck -3.68851 7.70618 2.00808
upperneck 3.60793 10.1928 -0.39844
head 1.8767 5.1021 -0.170831
lclavicle -1.50806e-14 3.92529e-14 4.51663e-30
lhumerus 12.7731 5.22186 68.2424
lradius 18.6972 0 0
lwrist -41.4495 0 0
lhand -31.0719 30.5855 0.0202611
lfingers 7.12502 0 0
lthumb -4.35267 60.5123 0.0187286
rclavicle -1.50806e-14 3.92529e-14 4.51663e-30
rhumerus -76.8368 21.8658 -97.0531
rradius 110.57 0 0
rwrist -68.3888 0 0
rhand -11.378 -24.1628 -0.000113349
rfingers 7.12502 0 0
rthumb 14.6563 -53.6249 -0.000133152
919
root -0.196398 14.1262 -36.2831 12.8734 -27.3075 -15.9529
lfemur -63.5881 30.586 -0.140948
ltibia 68.2635 0 0
lfoot -6.64673 -8.49583 -0.0450214
ltoes -13.1176 0 0
rfemur 5.50208 -8.18719 13.2964
rtibia 38.0382 0 0
rfoot -22.5335 -28.7983 -0.00107531
rtoes -27.3312 0 0
lowerback 11.5319 0.159203 6.44881
upperback -1.81617 1.52368 5.04615
thorax -8.43078 0.546522 1.48057
lowerneck -3.69937 7.71263 2.01423
upperneck 3.63123 10.2016 -0.413173
head 1.88787 5.10619 -0.174855
lclavicle -1.50504e-14 3.83683e-14 4.66623e-30
lhumerus 12.7028 4.82985 68.2481
lradius 18.9354 0 0
lwrist -41.0213 0 0
lhand -31.0634 30.6221 0.0173337
lfingers 7.12502 0 0
lthumb -4.34438 60.5472 0.0160775
rclavicle -1.50504e-14 3.83683e-14 4.66623e-30
rhumerus -76.8175 21.8358 -97.021
rradius 110.58 0 0
rwrist -68.3491 0 0
rhand -11.3723 -24.1643 -9.87315e-05
rfingers 7.12502 0 0
rthumb 14.6619 -53.6259 -0.000115091
920
root -0.187141 14.1177 -36.2737 12.8453 -27.3613 -15.9227
lfemur -63.4943 30.5541 -0.102842
ltibia 68.2055 0 0
lfoot -6.57928 -8.4401 -0.0348256
ltoes -13.0398 0 0
rfemur 5.43189 -8.21363 13.267
rtibia 38.1663 0 0
rfoot -22.5398 -28.7823 -0.00115261
rtoes -27.3267 0 0
lowerback 11.5452 0.162863 6.43027
upperback -1.80717 1.52593 5.04512
thorax -8.42905 0.548682 1.48875
lowerneck -3.71115 7.71976 2.02168
upperneck 3.65779 10.2114 -0.429662
head 1.90051 5.1107 -0.17946
lclavicle -1.49885e-14 3.73451e-14 4.85187e-30
lhumerus 12.6276 4.37229 68.26
lradius 19.2042 0 0
lwrist -40.5282 0 0
lhand -31.0487 30.6618 0.0141871
lfingers 7.12502 0 0
lthumb -4.33011 60.5849 0.0132296
rclavicle -1.49885e-14 3.73451e-14 4.85187e-30
rhumerus -76.7968 21.8034 -96.9855
rradius 110.591 0 0
rwrist -68.3056 0 0
rhand -11.366 -24.1662 -8.29552e-05
rfingers 7.12502 0 0
rthumb 14.6679 -53.6274 -9.56476e-05
921
root -0.177885 14.1092 -36.2642 12.8152 -27.4176 -15.8921
lfemur -63.3989 30.5232 -0.0643513
ltibia 68.1503 0 0
lfoot -6.5091 -8.38369 -0.0241087
ltoes -12.948 0 0
rfemur 5.3597 -8.2425 13.2348
rtibia 38.3015 0 0
rfoot -22.5471 -28.7637 -0.00124148
rtoes -27.3252 0 0
lowerback 11.5584 0.166138 6.41172
upperback -1.79727 1.52766 5.04601
thorax -8.42639 0.550668 1.49906
lowerneck -3.72371 7.72752 2.0307
upperneck 3.6879 10.222 -0.447931
head 1.91468 5.11561 -0.184701
lclavicle -1.48817e-14 3.61663e-14 5.08139e-30
lhumerus 12.5488 3.83951 68.2806
lradius 19.505 0 0
lwrist -39.9628 0 0
lhand -31.0253 30.7039 0.0108716
lfingers 7.12502 0 0
lthumb -4.30752 60.625 0.0102311
rclavicle -1.48817e-14 3.61663e-14 5.08139e-30
rhumerus -76.775 21.7689 -96.9471
rradius 110.602 0 0
rwrist -68.2586 0 0
rhand -11.3593 -24.1686 -6.62526e-05
rfingers 7.12502 0 0
rthumb 14.6743 -53.6293 -7.51224e-05
922
root -0.168628 14.1007 -36.2547 12.7834 -27.4756 -15.8621
lfemur -63.3046 30.4945 -0.0266626
ltibia 68.1008 0 0
lfoot -6.43764 -8.32835 -0.0130314
ltoes -12.8403 0 0
rfemur 5.28734 -8.27367 13.1996
rtibia 38.4416 0 0
rfoot -22.5555 -28.7423 -0.00134283
rtoes -27.3281 0 0
lowerback 11.571 0.168765 6.3938
upperback -1.7865 1.52861 5.04953
thorax -8.42253 0.552342 1.51193
lowerneck -3.73689 7.73589 2.04155
upperneck 3.72183 10.2334 -0.468008
head 1.93048 5.12091 -0.190631
lclavicle -1.47167e-14 3.48149e-14 5.3617e-30
lhumerus 12.4678 3.22197 68.3125
lradius 19.8392 0 0
lwrist -39.3178 0 0
lhand -30.9909 30.7478 0.00743323
lfingers 7.12502 0 0
lthumb -4.27426 60.667 0.00712415
rclavicle -1.47167e-14 3.48149e-14 5.3617e-30
rhumerus -76.7524 21.7329 -96.9058
rradius 110.613 0 0
rwrist -68.2085 0 0
rhand -11.3524 -24.1717 -4.88265e-05
rfingers 7.12502 0 0
rthumb 14.681 -53.6319 -5.37866e-05
923
root -0.159372 14.0922 -36.2453 12.7502 -27.5343 -15.8337
lfemur -63.214 30.4696 0.00904676
ltibia 68.0601 0 0
lfoot -6.36638 -8.27583 -0.00174709
ltoes -12.7146 0 0
rfemur 5.21661 -8.30704 13.1615
rtibia 38.5846 0 0
rfoot -22.5652 -28.7179 -0.00145726
rtoes -27.3367 0 0
lowerback 11.5825 0.170479 6.37716
upperback -1.77486 1.52852 5.05636
thorax -8.4172 0.553567 1.52781
lowerneck -3.75055 7.74484 2.05451
upperneck 3.75985 10.2456 -0.489918
head 1.94799 5.12656 -0.197307
lclavicle -1.44803e-14 3.32738e-14 5.6985e-30
lhumerus 12.3857 2.51011 68.3581
lradius 20.2083 0 0
lwrist -38.586 0 0
lhand -30.943 30.793 0.00391384
lfingers 7.12502 0 0
lthumb -4.22797 60.7102 0.00394739
rclavicle -1.44803e-14 3.32738e-14 5.6985e-30
rhumerus -76.7295 21.6957 -96.8618
rradius 110.624 0 0
rwrist -68.1557 0 0
rhand -11.3452 -24.1755 -3.08505e-05
rfingers 7.12502 0 0
rthumb 14.6879 -53.6352 -3.18805e-05
924
root -0.150115 14.0836 -36.2358 12.716 -27.5926 -15.8079
lfemur -63.1301 30.4499 0.0416085
ltibia 68.031 0 0
lfoot -6.29676 -8.22788 0.00959806
ltoes -12.569 0 0
rfemur 5.14933 -8.34248 13.1205
rtibia 38.7283 0 0
rfoot -22.5762 -28.69 -0.00158495
rtoes -27.352 0 0
lowerback 11.5924 0.171014 6.36246
upperback -1.76238 1.52714 5.06721
thorax -8.41016 0.554204 1.54714
lowerneck -3.76453 7.75433 2.06986
upperneck 3.80225 10.2585 -0.513687
head 1.96728 5.13256 -0.204782
lclavicle -1.41592e-14 3.15258e-14 6.09599e-30
lhumerus 12.3036 1.69439 68.42
lradius 20.6137 0 0
lwrist -37.76 0 0
lhand -30.8792 30.839 0.000351569
lfingers 7.12502 0 0
lthumb -4.16631 60.7541 0.000735672
rclavicle -1.41592e-14 3.15258e-14 6.09599e-30
rhumerus -76.7065 21.658 -96.8154
rradius 110.634 0 0
rwrist -68.1005 0 0
rhand -11.3379 -24.1803 -1.24723e-05
rfingers 7.12502 0 0
rthumb 14.6949 -53.6394 -9.61635e-06
925
root -0.140858 14.0751 -36.2264 12.6812 -27.6495 -15.7857
lfemur -63.0554 30.437 0.0698608
ltibia 68.0167 0 0
lfoot -6.23025 -8.18625 0.0208641
ltoes -12.4014 0 0
rfemur 5.0873 -8.37987 13.0766
rtibia 38.8706 0 0
rfoot -22.5888 -28.6585 -0.00172562
rtoes -27.3754 0 0
lowerback 11.6003 0.170107 6.35035
upperback -1.74906 1.52419 5.08277
thorax -8.40115 0.554117 1.57036
lowerneck -3.77868 7.76432 2.08786
upperneck 3.84928 10.272 -0.53934
head 1.98844 5.13887 -0.213111
lclavicle -1.37402e-14 2.9554e-14 6.55654e-30
lhumerus 12.2224 0.765261 68.5007
lradius 21.0568 0 0
lwrist -36.8325 0 0
lhand -30.7971 30.885 -0.00321882
lfingers 7.12502 0 0
lthumb -4.08691 60.7982 -0.00247927
rclavicle -1.37402e-14 2.9554e-14 6.55654e-30
rhumerus -76.6839 21.6201 -96.7668
rradius 110.644 0 0
rwrist -68.0433 0 0
rhand -11.3306 -24.186 6.1815e-06
rfingers 7.12502 0 0
rthumb 14.702 -53.6446 1.28173e-05
